# xmcd
#
# Track frame offsets: 
#        182
#        12572
#        42485
#        53930
#        75772
#        88082
#        102250
#        125485
#        143347
#        156250
#        166757
#        179175
#
# Disc length: 2662 seconds
#
# Revision: 2
# Processed by: cddbd v1.5.1PL2 Copyright (c) Steve Scherf et al.
# Submitted via: ExactAudioCopy v0.95b3
#
DISCID=970a640c
DTITLE=Livin' Blues - Hell's Session
DYEAR=1969
DGENRE=Blues
TTITLE0=Waitin' On You
TTITLE1=One Night Blues
TTITLE2=Blowlegged Woman
TTITLE3=Hell's Session
TTITLE4=Big Road Blues
TTITLE5=Black Panther
TTITLE6=Worried Dreams
TTITLE7=Big Black Train
TTITLE8=Murphy McCoy (Bonus Track)
TTITLE9=My Sister Kate (Bonus Track)
TTITLE10=You Better Watch Yourself (Sonny Boy) (Bonus Track)
TTITLE11=One Night Blues (Bonus Track)
EXTD=
EXTT0=
EXTT1=
EXTT2=
EXTT3=
EXTT4=
EXTT5=
EXTT6=
EXTT7=
EXTT8=
EXTT9=
EXTT10=
EXTT11=
PLAYORDER=
